<svg width="25" height="24" viewBox="0 0 25 24" fill="none" xmlns="http://www.w3.org/2000/svg">
<path d="M5.97866 11.6387C6.69054 12.8586 7.51013 14.031 8.57583 15.0995C9.64389 16.1753 10.9713 17.1531 12.6922 17.9877C12.8198 18.047 12.9412 18.047 13.0489 18.0065C13.2123 17.9468 13.3791 17.8188 13.5435 17.662C13.671 17.5412 13.8288 17.3481 13.9951 17.1365C14.6559 16.3082 15.4755 15.2819 16.6314 15.7953C16.6569 15.8065 16.6763 15.8191 16.7018 15.8303L20.5593 17.9396C20.5697 17.945 20.5844 17.9585 20.5957 17.9634C21.1049 18.2963 21.3137 18.8097 21.3194 19.39C21.3194 19.982 21.0903 20.6467 20.7544 21.2091C20.3104 21.9502 19.6552 22.4412 18.9003 22.7673C18.1823 23.0817 17.3825 23.2501 16.614 23.3579C15.407 23.5272 14.2771 23.4194 13.1211 23.0812C11.9902 22.7479 10.8523 22.1995 9.60799 21.4692L9.51589 21.413C8.94571 21.0752 8.32925 20.7119 7.72507 20.2843C5.50911 18.6942 3.25394 16.3999 1.78529 13.8742C0.553314 11.7541 -0.119363 9.46558 0.248624 7.28358C0.451754 6.08745 0.991214 5.00002 1.93173 4.28225C2.75132 3.65432 3.85623 3.31026 5.28614 3.43063C5.45053 3.44096 5.59697 3.53259 5.67302 3.66599L8.14502 7.64111C8.50734 8.08718 8.55174 8.52818 8.35476 8.96978C8.18989 9.33308 7.86017 9.66598 7.4081 9.97858C7.27488 10.0864 7.11616 10.196 6.95036 10.311C6.39719 10.6928 5.76939 11.133 5.98433 11.6517L5.97866 11.6387ZM10.5849 9.74098C10.2032 9.64758 9.97359 9.27608 10.0724 8.91318C10.1711 8.55018 10.5613 8.33198 10.943 8.42578C12.1008 8.71278 13.1896 9.30888 14.0706 10.0909C14.9568 10.8778 15.6441 11.8611 15.9914 12.9152C16.1085 13.2741 15.8978 13.6559 15.5209 13.7673C15.1439 13.8792 14.7419 13.6788 14.6247 13.3204C14.3531 12.4953 13.8061 11.7173 13.0961 11.0867C12.3804 10.4511 11.5051 9.96918 10.5849 9.74098ZM10.6798 5.5754C10.2901 5.51252 10.0284 5.16037 10.0946 4.78981C10.1602 4.4197 10.531 4.17041 10.9203 4.23329C13.1032 4.59262 15.1755 5.64637 16.8369 7.12502C18.4992 8.60368 19.7572 10.5122 20.3104 12.5806C20.4077 12.9453 20.1757 13.3163 19.7922 13.4089C19.4086 13.5014 19.0184 13.2809 18.9211 12.9161C18.4345 11.0979 17.3268 9.41758 15.8624 8.11498C14.4013 6.81465 12.585 5.88937 10.6798 5.5754ZM11.14 1.79387C10.7474 1.7512 10.4654 1.41343 10.5103 1.04017C10.5551 0.66691 10.9099 0.398309 11.3025 0.440979C14.3564 0.780999 17.2262 2.11278 19.4979 4.07069C21.7752 6.0331 23.4579 8.63018 24.1282 11.4918C24.2132 11.8575 23.9699 12.2204 23.585 12.3012C23.2004 12.3821 22.8187 12.1508 22.7337 11.7847C22.1291 9.20418 20.6056 6.85597 18.5403 5.07683C16.4841 3.30487 13.8921 2.09975 11.14 1.79387Z" fill="#B2DBB9"/>
</svg>
