<svg width="76" height="76" viewBox="0 0 76 76" fill="none" xmlns="http://www.w3.org/2000/svg">
<path d="M42.1131 42.9076C27.3124 52.6133 23.6248 67.1536 23.6248 67.1536V8.72373H40.7687C40.7687 8.72373 56.152 8.72373 57.8109 22.652C58.9986 32.6233 49.3068 38.1901 42.1131 42.9076ZM57.5337 52.0136C57.5337 52.6291 57.4858 53.2329 57.4139 53.8296C57.3894 54.0322 57.3544 54.2292 57.3227 54.4285C57.2564 54.8357 57.1755 55.2364 57.0779 55.6327C57.032 55.8176 56.989 56.0033 56.9359 56.1853C55.1723 62.3213 49.6299 66.8851 42.9432 67.1254C42.8815 67.1333 42.8216 67.1465 42.7591 67.1536H34.87C35.4614 61.4312 37.3436 44.8798 50.0499 38.9796C53.3568 40.9263 55.8567 44.0854 56.9359 47.8408C56.989 48.0228 57.032 48.2081 57.0779 48.3934C57.1755 48.7893 57.2564 49.1905 57.3227 49.5976C57.3544 49.7969 57.3894 49.9935 57.4139 50.1966C57.4858 50.7932 57.5337 51.397 57.5337 52.0121V52.0136ZM37.99 1.36768C17.7924 1.36768 1.41919 17.7409 1.41919 37.9385C1.41919 58.1361 17.7924 74.5093 37.99 74.5093C58.1872 74.5093 74.5608 58.1361 74.5608 37.9385C74.5608 17.7409 58.1872 1.36768 37.99 1.36768Z" fill="#ED583A" stroke="#ED583A" stroke-width="2.045"/>
</svg>
