<svg width="29" height="29" viewBox="0 0 29 29" fill="none" xmlns="http://www.w3.org/2000/svg">
<path fill-rule="evenodd" clip-rule="evenodd" d="M24.0771 4.92476C22.7858 3.63034 21.249 2.60409 19.5559 1.90558C17.8628 1.20707 16.0471 0.85023 14.2143 0.855777C6.53076 0.855777 0.277553 7.0794 0.277553 14.7298C0.277404 17.1645 0.921174 19.5563 2.14418 21.665L0.160889 28.8557L7.55274 26.9251C9.59571 28.0334 11.8851 28.6149 14.2119 28.6166V28.6166C16.9703 28.6171 19.667 27.8037 21.9608 26.2792C24.2546 24.7546 26.0425 22.5874 27.0985 20.0517C28.1545 17.5159 28.4311 14.7255 27.8932 12.0333C27.3554 9.34116 26.0274 6.86816 24.0771 4.92708V4.92708V4.92476ZM14.2189 26.2797C12.1417 26.2787 10.103 25.7213 8.31689 24.666L7.89223 24.4141L3.50565 25.5576L4.6723 21.3028L4.39813 20.8663C2.87789 18.4644 2.301 15.589 2.77784 12.7903C3.25467 9.9916 4.75176 7.4661 6.98266 5.69699C9.21356 3.92788 12.0216 3.03938 14.8697 3.20147C17.7177 3.36357 20.4056 4.56488 22.4193 6.57557C24.0412 8.18987 25.1457 10.2465 25.5931 12.4853C26.0406 14.7242 25.8108 17.0448 24.933 19.1538C24.0552 21.2628 22.5687 23.0654 20.6614 24.3338C18.7541 25.6021 16.5118 26.2793 14.2178 26.2797H14.2189ZM20.5771 17.6355C20.2271 17.4602 18.5157 16.6244 18.1983 16.5083C17.881 16.3922 17.6477 16.333 17.4109 16.6836C17.174 17.0342 16.5102 17.8108 16.3072 18.0442C16.1042 18.2775 15.9001 18.3077 15.5547 18.1324C15.2094 17.9571 14.0813 17.5914 12.7548 16.4096C11.9909 15.7085 11.3345 14.8996 10.8065 14.0089C10.6023 13.6606 10.7843 13.4737 10.9617 13.3042C11.139 13.1347 11.3117 12.9002 11.4832 12.697C11.6282 12.5219 11.7461 12.3263 11.8331 12.1166C11.8794 12.021 11.9011 11.9155 11.8962 11.8095C11.8914 11.7035 11.8601 11.6004 11.8051 11.5094C11.7106 11.3353 11.0107 9.62876 10.7307 8.93337C10.4507 8.23799 10.1602 8.35292 9.94552 8.33667C9.73086 8.32041 9.51036 8.32622 9.28053 8.32622C9.10335 8.33035 8.92895 8.37096 8.76831 8.44549C8.60768 8.52001 8.46431 8.62684 8.34722 8.75924C8.03339 9.10403 7.13158 9.94568 7.13158 11.6522C7.13158 13.3588 8.37872 15.0049 8.55372 15.2394C8.72871 15.4739 11.0107 18.9741 14.5106 20.4751C15.3412 20.8304 15.9899 21.044 16.4939 21.2088C17.2046 21.4221 17.9553 21.4686 18.6872 21.3446C19.3568 21.2471 20.7475 20.5076 21.0403 19.6985C21.3331 18.8893 21.332 18.1893 21.2445 18.0511C21.157 17.913 20.9306 17.812 20.5795 17.6344L20.5771 17.6355Z" fill="#FCFCFC"/>
</svg>
