<svg width="34" height="32" viewBox="0 0 34 32" fill="none" xmlns="http://www.w3.org/2000/svg">
<g clip-path="url(#clip0_145_33)">
<path fill-rule="evenodd" clip-rule="evenodd" d="M7.00586 20.9139C7.26931 20.9139 7.52196 21.019 7.70825 21.2059C7.89453 21.3929 7.99919 21.6465 7.99919 21.9109C7.99919 22.1753 7.89453 22.4289 7.70825 22.6159C7.52196 22.8028 7.26931 22.9079 7.00586 22.9079H5.14095L2.68392 30.0116H31.2469L28.5796 22.9079H27.0384C26.775 22.9079 26.5223 22.8028 26.336 22.6159C26.1497 22.4289 26.0451 22.1753 26.0451 21.9109C26.0451 21.6465 26.1497 21.3929 26.336 21.2059C26.5223 21.019 26.775 20.9139 27.0384 20.9139H29.999L34 31.9999H0L3.68555 20.9139H7.00586Z" fill="#B2DBB9"/>
<path fill-rule="evenodd" clip-rule="evenodd" d="M21.8753 23.2273C20.6387 24.5923 19.2152 25.7742 17.6475 26.7375C17.5502 26.8101 17.4331 26.8511 17.312 26.855C17.1908 26.859 17.0714 26.8257 16.9696 26.7597C14.7315 25.3405 12.7445 23.5574 11.0898 21.4833C8.94824 18.7979 7.59798 15.807 7.13867 12.9272C6.67936 10.0474 7.10824 7.19812 8.55534 4.9126C9.1439 3.98433 9.88375 3.16197 10.744 2.4799C12.786 0.846994 15.1185 -0.0166698 17.4316 -7.51496e-06C19.8038 0.0343971 22.076 0.964448 23.7956 2.60487C24.4568 3.21144 25.028 3.91003 25.4917 4.67933C27.0495 7.25366 27.3843 10.5361 26.7008 13.863C25.9428 17.3563 24.2759 20.5855 21.8698 23.2217L21.8753 23.2273ZM17 5.19309C17.9883 5.19309 18.9545 5.48723 19.7762 6.03833C20.598 6.58942 21.2385 7.37271 21.6167 8.28915C21.9949 9.20559 22.0939 10.214 21.9011 11.1869C21.7082 12.1598 21.2323 13.0534 20.5335 13.7548C19.8346 14.4563 18.9442 14.9339 17.9749 15.1274C17.0055 15.321 16.0008 15.2216 15.0877 14.842C14.1746 14.4624 13.3942 13.8196 12.8451 12.9948C12.296 12.1701 12.0029 11.2004 12.0029 10.2084C12.0029 8.87829 12.5294 7.60261 13.4665 6.66205C14.4037 5.72149 15.6747 5.19309 17 5.19309Z" fill="#ED583A"/>
</g>
<defs>
<clipPath id="clip0_145_33">
<rect width="34" height="32" fill="white"/>
</clipPath>
</defs>
</svg>
