<svg width="21" height="20" viewBox="0 0 21 20" fill="none" xmlns="http://www.w3.org/2000/svg">
<path d="M10.0076 0.00439409C15.5246 0.00439434 20.0046 4.48439 20.0046 10.0024C20.0046 15.5204 15.5246 20.0004 10.0076 20.0004C4.48964 20.0004 0.00963906 15.5204 0.0096393 10.0024C0.00963954 4.48439 4.48964 0.00439385 10.0076 0.00439409V0.00439409ZM14.8506 8.21539C14.9586 8.07439 15.0076 7.91539 15.0076 7.75939C15.0076 7.37039 14.7016 7.00439 14.2586 7.00439L5.75764 7.00439C5.31264 7.00439 5.00764 7.37139 5.00764 7.75939C5.00764 7.91639 5.05764 8.07539 5.16664 8.21639C6.36964 9.77039 8.41864 12.4154 9.42464 13.7144C9.56664 13.8984 9.78464 14.0044 10.0166 14.0044C10.2466 14.0044 10.4656 13.8974 10.6076 13.7134L14.8506 8.21539Z" fill="#C4E3C9"/>
</svg>
