<svg width="21" height="20" viewBox="0 0 21 20" fill="none" xmlns="http://www.w3.org/2000/svg">
<path d="M10.8749 20.0005C5.35793 20.0005 0.877929 15.5205 0.877929 10.0025C0.877929 4.48449 5.35793 0.0044897 10.8749 0.00448946C16.3929 0.00448922 20.8729 4.48449 20.8729 10.0025C20.8729 15.5205 16.3929 20.0005 10.8749 20.0005V20.0005ZM6.03193 11.7895C5.92393 11.9305 5.87493 12.0895 5.87493 12.2455C5.87493 12.6345 6.18093 13.0005 6.62393 13.0005L15.1249 13.0005C15.5699 13.0005 15.8749 12.6335 15.8749 12.2455C15.8749 12.0885 15.8249 11.9295 15.7159 11.7885C14.5129 10.2345 12.4639 7.58949 11.4579 6.29049C11.3159 6.10649 11.0979 6.00049 10.8659 6.00049C10.6359 6.00049 10.4169 6.10749 10.2749 6.29149L6.03193 11.7895Z" fill="#C4E3C9"/>
</svg>
