<svg width="76" height="77" viewBox="0 0 76 77" fill="none" xmlns="http://www.w3.org/2000/svg">
<path d="M42.254 43.6359C27.4021 53.3752 23.7017 67.9659 23.7017 67.9659V9.33367H40.905C40.905 9.33367 56.3416 9.33367 58.0062 23.3101C59.1979 33.316 49.4726 38.9021 42.254 43.6359ZM57.728 52.7735C57.728 53.3911 57.68 53.997 57.6078 54.5957C57.5832 54.799 57.5481 54.9967 57.5163 55.1967C57.4498 55.6053 57.3685 56.0074 57.2706 56.4051C57.2245 56.5907 57.1814 56.777 57.1281 56.9596C55.3584 63.1168 49.7969 67.6964 43.087 67.9375C43.025 67.9455 42.9649 67.9587 42.9022 67.9659H34.9858C35.5793 62.2237 37.468 45.6149 50.2183 39.6943C53.5366 41.6477 56.0452 44.8178 57.1281 48.5862C57.1814 48.7688 57.2245 48.9548 57.2706 49.1407C57.3685 49.538 57.4498 49.9405 57.5163 50.3491C57.5481 50.5491 57.5832 50.7464 57.6078 50.9501C57.68 51.5488 57.728 52.1547 57.728 52.7719V52.7735ZM38.1166 1.95215C17.8491 1.95215 1.41919 18.3821 1.41919 38.6496C1.41919 58.9171 17.8491 75.347 38.1166 75.347C58.3838 75.347 74.8141 58.9171 74.8141 38.6496C74.8141 18.3821 58.3838 1.95215 38.1166 1.95215Z" fill="#F1B88B"/>
<path d="M42.254 43.6359L42.8147 44.4909L42.8147 44.4909L42.254 43.6359ZM23.7017 67.9659H22.6792L24.6928 68.2172L23.7017 67.9659ZM23.7017 9.33367V8.31117H22.6792V9.33367H23.7017ZM40.905 9.33367L40.905 8.31117H40.905V9.33367ZM58.0062 23.3101L56.9908 23.4311L56.9908 23.4311L58.0062 23.3101ZM57.6078 54.5957L58.6229 54.7183L58.6229 54.7181L57.6078 54.5957ZM57.5163 55.1967L58.5255 55.361L58.5262 55.357L57.5163 55.1967ZM57.2706 56.4051L58.263 56.6516L58.2635 56.6495L57.2706 56.4051ZM57.1281 56.9596L56.1466 56.673L56.1454 56.6771L57.1281 56.9596ZM43.087 67.9375L43.0503 66.9157L43.0036 66.9174L42.9572 66.9233L43.087 67.9375ZM42.9022 67.9659V68.9884H42.9605L43.0185 68.9817L42.9022 67.9659ZM34.9858 67.9659L33.9688 67.8608L33.8522 68.9884H34.9858V67.9659ZM50.2183 39.6943L50.737 38.8132L50.2745 38.5409L49.7877 38.7669L50.2183 39.6943ZM57.1281 48.5862L56.1454 48.8686L56.1466 48.8728L57.1281 48.5862ZM57.2706 49.1407L58.2634 48.8961L58.2631 48.8946L57.2706 49.1407ZM57.5163 50.3491L58.5262 50.1888L58.5255 50.1848L57.5163 50.3491ZM57.6078 50.9501L58.6229 50.8277L58.6229 50.8277L57.6078 50.9501ZM41.6933 42.7808C34.1018 47.7591 29.3619 53.9763 26.5207 58.9456C25.0998 61.4308 24.1513 63.6081 23.5564 65.17C23.2589 65.9512 23.0495 66.5792 22.9135 67.0158C22.8455 67.2342 22.7958 67.4048 22.7626 67.5228C22.746 67.5818 22.7335 67.6277 22.7249 67.6598C22.7206 67.6759 22.7173 67.6885 22.7149 67.6977C22.7137 67.7023 22.7128 67.7059 22.7121 67.7088C22.7117 67.7102 22.7114 67.7113 22.7111 67.7123C22.711 67.7128 22.7109 67.7133 22.7108 67.7136C22.7107 67.7141 22.7106 67.7145 23.7017 67.9659C24.6928 68.2172 24.6927 68.2176 24.6927 68.2178C24.6927 68.2179 24.6926 68.2181 24.6926 68.2181C24.6926 68.2182 24.6926 68.218 24.6927 68.2177C24.6929 68.2169 24.6933 68.2153 24.694 68.2129C24.6953 68.2079 24.6975 68.1995 24.7006 68.1876C24.7069 68.164 24.7171 68.1267 24.7312 68.0765C24.7595 67.976 24.8038 67.8236 24.866 67.624C24.9903 67.2247 25.1861 66.6367 25.4675 65.8979C26.0305 64.4197 26.9354 62.3405 28.296 59.9606C31.018 55.1998 35.5543 49.252 42.8147 44.4909L41.6933 42.7808ZM23.7017 10.3562H40.905V8.31117H23.7017V10.3562ZM40.905 9.33367C40.905 10.3562 40.9046 10.3562 40.9042 10.3562C40.9042 10.3562 40.9039 10.3562 40.9039 10.3562C40.9037 10.3562 40.9038 10.3562 40.9041 10.3562C40.9048 10.3562 40.9063 10.3562 40.9088 10.3562C40.9138 10.3562 40.9223 10.3563 40.9344 10.3565C40.9585 10.3568 40.9967 10.3576 41.048 10.3591C41.1506 10.3622 41.3056 10.3685 41.506 10.3814C41.9071 10.4071 42.4881 10.459 43.193 10.5635C44.6069 10.7731 46.4977 11.1912 48.4278 12.0202C52.2601 13.6664 56.2133 16.9023 56.9908 23.4311L59.0215 23.1892C58.1345 15.7416 53.537 11.9892 49.2349 10.1412C47.0978 9.22325 45.0254 8.76778 43.4929 8.5406C42.7246 8.42672 42.0867 8.36942 41.637 8.34057C41.412 8.32613 41.2338 8.31878 41.1095 8.31504C41.0473 8.31317 40.9986 8.31221 40.9642 8.3117C40.947 8.31145 40.9334 8.31132 40.9235 8.31125C40.9185 8.31121 40.9145 8.31119 40.9114 8.31118C40.9099 8.31118 40.9086 8.31117 40.9075 8.31117C40.9069 8.31117 40.9063 8.31117 40.906 8.31117C40.9055 8.31117 40.905 8.31117 40.905 9.33367ZM56.9908 23.4311C57.5377 28.0223 55.6073 31.6287 52.5549 34.7331C49.4674 37.8732 45.3536 40.3804 41.6932 42.7808L42.8147 44.4909C46.3729 42.1575 50.7311 39.5048 54.0131 36.1669C57.33 32.7934 59.6664 28.6038 59.0215 23.1892L56.9908 23.4311ZM56.7055 52.7735C56.7055 53.3386 56.6615 53.9018 56.5926 54.4733L58.6229 54.7181C58.6984 54.0921 58.7505 53.4435 58.7505 52.7735H56.7055ZM56.5927 54.473C56.5711 54.6512 56.5421 54.8119 56.5065 55.0363L58.5262 55.357C58.554 55.1815 58.5953 54.9469 58.6229 54.7183L56.5927 54.473ZM56.5071 55.0324C56.4447 55.4156 56.3688 55.7909 56.2778 56.1606L58.2635 56.6495C58.3683 56.2239 58.4549 55.795 58.5255 55.361L56.5071 55.0324ZM56.2783 56.1585C56.2268 56.3659 56.1922 56.5168 56.1466 56.673L58.1097 57.2461C58.1707 57.0372 58.2223 56.8154 58.263 56.6516L56.2783 56.1585ZM56.1454 56.6771C54.4944 62.4213 49.3056 66.6909 43.0503 66.9157L43.1238 68.9594C50.2881 68.7019 56.2224 63.8123 58.1108 57.242L56.1454 56.6771ZM42.9572 66.9233C42.901 66.9305 42.8474 66.9399 42.8238 66.9439C42.8089 66.9464 42.8003 66.9479 42.7933 66.9489C42.7868 66.9499 42.7849 66.9501 42.7859 66.95L43.0185 68.9817C43.0806 68.9746 43.1362 68.9651 43.166 68.9601C43.2036 68.9537 43.2111 68.9525 43.2169 68.9517L42.9572 66.9233ZM36.0029 68.071C36.2986 65.2097 36.9097 59.7371 38.9986 54.2614C41.0877 48.7852 44.6078 43.4269 50.649 40.6217L49.7877 38.7669C43.0786 41.8823 39.2791 47.7887 37.0879 53.5325C34.8965 59.277 34.2665 64.9799 33.9688 67.8608L36.0029 68.071ZM49.6996 40.5755C52.7969 42.3988 55.1363 45.357 56.1454 48.8686L58.1109 48.3038C56.9542 44.2786 54.2763 40.8966 50.737 38.8132L49.6996 40.5755ZM56.1466 48.8728C56.1921 49.0287 56.227 49.1802 56.2782 49.3868L58.2631 48.8946C58.2221 48.7293 58.1707 48.5089 58.1097 48.2997L56.1466 48.8728ZM56.2778 49.3854C56.3688 49.7544 56.4447 50.1301 56.5071 50.5134L58.5255 50.1848C58.4549 49.751 58.3683 49.3215 58.2634 48.8961L56.2778 49.3854ZM56.5065 50.5095C56.5421 50.7342 56.5711 50.8941 56.5926 51.0725L58.6229 50.8277C58.5953 50.5986 58.554 50.3639 58.5262 50.1888L56.5065 50.5095ZM56.5926 51.0725C56.6615 51.644 56.7055 52.2072 56.7055 52.7719H58.7505C58.7505 52.1022 58.6984 51.4536 58.6229 50.8277L56.5926 51.0725ZM38.1166 0.929649C17.2844 0.929649 0.39669 17.8174 0.39669 38.6496H2.44169C2.44169 18.9468 18.4138 2.97465 38.1166 2.97465V0.929649ZM0.39669 38.6496C0.39669 59.4818 17.2844 76.3695 38.1166 76.3695V74.3245C18.4138 74.3245 2.44169 58.3524 2.44169 38.6496H0.39669ZM38.1166 76.3695C58.9485 76.3695 75.8366 59.4818 75.8366 38.6496H73.7916C73.7916 58.3524 57.8191 74.3245 38.1166 74.3245V76.3695ZM75.8366 38.6496C75.8366 17.8173 58.9485 0.929649 38.1166 0.929649V2.97465C57.8191 2.97465 73.7916 18.9468 73.7916 38.6496H75.8366ZM24.7242 67.9659V9.33367H22.6792V67.9659H24.7242ZM56.7055 52.7719V52.7735H58.7505V52.7719H56.7055ZM42.9022 66.9434H34.9858V68.9884H42.9022V66.9434Z" fill="#F1B88B"/>
</svg>
