<svg width="36" height="36" viewBox="0 0 36 36" fill="none" xmlns="http://www.w3.org/2000/svg">
<path d="M35.8037 18.0252C35.8037 8.2252 27.9037 0.325195 18.1037 0.325195C8.3037 0.325195 0.403687 8.2252 0.403687 18.0252C0.403687 26.8252 6.90371 34.1252 15.3037 35.5252V23.1252H10.8037V18.0252H15.3037V14.1252C15.3037 9.7252 17.9037 7.2252 22.0037 7.2252C23.9037 7.2252 26.0037 7.5252 26.0037 7.5252V11.9252H23.8037C21.6037 11.9252 20.9037 13.3252 20.9037 14.7252V18.0252H25.8037L25.0037 23.1252H20.9037V35.5252C29.3037 34.1252 35.8037 26.8252 35.8037 18.0252Z" fill="#337FFF"/>
<path d="M25.0037 23.1251L25.8037 18.0251H20.9037V14.7251C20.9037 13.3251 21.6037 11.9251 23.8037 11.9251H26.0037V7.5251C26.0037 7.5251 24.0037 7.2251 22.0037 7.2251C18.0037 7.2251 15.3037 9.6251 15.3037 14.1251V18.0251H10.8037V23.1251H15.3037V35.5251C16.2037 35.6251 17.1037 35.7251 18.1037 35.7251C19.0037 35.7251 20.0037 35.6251 20.9037 35.5251V23.1251H25.0037Z" fill="white"/>
</svg>
