<svg width="29" height="29" viewBox="0 0 29 29" fill="none" xmlns="http://www.w3.org/2000/svg">
<path d="M7.39109 14.3455C8.22173 15.8306 9.17804 17.2577 10.4215 18.5586C11.6678 19.8682 13.2166 21.0586 15.2246 22.0745C15.3734 22.1467 15.515 22.1467 15.6407 22.0975C15.8314 22.0248 16.026 21.8689 16.2178 21.6781C16.3666 21.531 16.5507 21.2959 16.7447 21.0383C17.5158 20.03 18.4722 18.7806 19.8209 19.4056C19.8507 19.4192 19.8733 19.4346 19.903 19.4482L24.404 22.016C24.4161 22.0226 24.4332 22.039 24.4465 22.045C25.0406 22.4502 25.2843 23.0752 25.2909 23.7816C25.2909 24.5023 25.0236 25.3116 24.6317 25.9962C24.1135 26.8984 23.3491 27.4961 22.4683 27.893C21.6305 28.2758 20.6973 28.4809 19.8005 28.6121C18.3922 28.8182 17.0738 28.687 15.725 28.2753C14.4055 27.8695 13.0777 27.2019 11.6259 26.3128L11.5184 26.2444C10.8531 25.8332 10.1338 25.3909 9.42883 24.8703C6.84321 22.9346 4.21185 20.1416 2.49821 17.0669C1.06071 14.486 0.275823 11.7 0.705197 9.04367C0.942208 7.58753 1.57166 6.26372 2.66908 5.38993C3.62538 4.6255 4.91461 4.20665 6.58305 4.3532C6.77487 4.36577 6.94573 4.47732 7.03448 4.63972L9.91884 9.47892C10.3416 10.0219 10.3934 10.5589 10.1636 11.0964C9.9712 11.5387 9.58647 11.9439 9.05898 12.3245C8.90355 12.4557 8.71835 12.5891 8.52488 12.7291C7.87944 13.1939 7.14692 13.7298 7.39771 14.3613L7.39109 14.3455V14.3455ZM12.7657 12.0352C12.3204 11.9215 12.0525 11.4693 12.1677 11.0275C12.2829 10.5857 12.7382 10.3199 13.1835 10.4342C14.5345 10.7836 15.805 11.5092 16.8329 12.4612C17.8669 13.4192 18.6689 14.6161 19.074 15.8995C19.2107 16.3364 18.9649 16.8012 18.5251 16.9368C18.0852 17.0729 17.6162 16.829 17.4795 16.3927C17.1625 15.3882 16.5243 14.4412 15.6958 13.6734C14.8608 12.8997 13.8394 12.313 12.7657 12.0352V12.0352ZM12.8765 6.96418C12.4218 6.88763 12.1164 6.45893 12.1936 6.00782C12.2702 5.55725 12.7029 5.25378 13.1571 5.33033C15.7041 5.76777 18.1221 7.05057 20.0607 8.85065C22.0003 10.6507 23.4681 12.9741 24.1135 15.4921C24.2271 15.9361 23.9565 16.3878 23.5089 16.5004C23.0613 16.6131 22.6061 16.3446 22.4925 15.9006C21.9248 13.6871 20.6323 11.6415 18.9236 10.0558C17.2188 8.47281 15.0994 7.34639 12.8765 6.96418V6.96418ZM13.4134 2.36065C12.9553 2.3087 12.6263 1.8975 12.6786 1.44311C12.731 0.988718 13.1449 0.66173 13.603 0.713677C17.1664 1.12761 20.5148 2.74888 23.1655 5.13239C25.8228 7.52137 27.7861 10.683 28.5682 14.1667C28.6675 14.6118 28.3836 15.0536 27.9344 15.152C27.4857 15.2504 27.0403 14.9688 26.9411 14.5232C26.2356 11.3818 24.458 8.52311 22.0483 6.35723C19.6489 4.20009 16.6246 2.73302 13.4134 2.36065V2.36065Z" fill="#FCFCFC"/>
</svg>
