<svg width="36" height="36" viewBox="0 0 36 36" fill="none" xmlns="http://www.w3.org/2000/svg">
<path d="M17.8963 35.776C27.6717 35.776 35.5963 27.8514 35.5963 18.076C35.5963 8.30053 27.6717 0.375977 17.8963 0.375977C8.12086 0.375977 0.196289 8.30053 0.196289 18.076C0.196289 27.8514 8.12086 35.776 17.8963 35.776Z" fill="url(#paint0_linear_121_491)"/>
<path d="M23.3963 11.4761C22.6963 11.4761 22.1963 11.9761 22.1963 12.6761C22.1963 13.3761 22.6963 13.8761 23.3963 13.8761C24.0963 13.8761 24.5963 13.3761 24.5963 12.6761C24.5963 11.9761 24.0963 11.4761 23.3963 11.4761Z" fill="white"/>
<path d="M17.9963 12.9761C15.1963 12.9761 12.8963 15.2761 12.8963 18.0761C12.8963 20.8761 15.1963 23.1761 17.9963 23.1761C20.7963 23.1761 23.0963 20.8761 23.0963 18.0761C23.0963 15.2761 20.7963 12.9761 17.9963 12.9761ZM17.9963 21.3761C16.1963 21.3761 14.6963 19.8761 14.6963 18.0761C14.6963 16.2761 16.1963 14.7761 17.9963 14.7761C19.7963 14.7761 21.2963 16.2761 21.2963 18.0761C21.2963 19.8761 19.7963 21.3761 17.9963 21.3761Z" fill="white"/>
<path d="M21.9963 28.4759H13.6963C10.2963 28.4759 7.49628 25.6759 7.49628 22.2759V13.9759C7.49628 10.5759 10.2963 7.77588 13.6963 7.77588H21.9963C25.3963 7.77588 28.1963 10.5759 28.1963 13.9759V22.2759C28.2963 25.6759 25.4963 28.4759 21.9963 28.4759ZM13.7963 9.67587C11.3963 9.67587 9.49628 11.5759 9.49628 13.9759V22.2759C9.49628 24.6759 11.3963 26.5759 13.7963 26.5759H22.0963C24.4963 26.5759 26.3963 24.6759 26.3963 22.2759V13.9759C26.3963 11.5759 24.4963 9.67587 22.0963 9.67587H13.7963Z" fill="white"/>
<defs>
<linearGradient id="paint0_linear_121_491" x1="1.33429" y1="4.12538" x2="36.7089" y2="34.0027" gradientUnits="userSpaceOnUse">
<stop offset="0.0011048" stop-color="#FBE18A"/>
<stop offset="0.2094" stop-color="#FCBB45"/>
<stop offset="0.3765" stop-color="#F75274"/>
<stop offset="0.5238" stop-color="#D53692"/>
<stop offset="0.7394" stop-color="#8F39CE"/>
<stop offset="1" stop-color="#5B4FE9"/>
</linearGradient>
</defs>
</svg>
