<svg width="243" height="83" viewBox="0 0 243 83" fill="none" xmlns="http://www.w3.org/2000/svg">
<path d="M93.9876 39.4772C93.9876 37.3134 92.2333 35.5591 90.0695 35.5591C87.9057 35.5591 86.1514 37.3134 86.1514 39.4772C86.1514 41.641 87.9057 43.3953 90.0695 43.3953C92.2333 43.3953 93.9876 41.641 93.9876 39.4772Z" fill="#B2DBB9"/>
<path d="M137.299 12.4028V18.5332H107.827V36.5567H136.043V42.5398H107.827V64.1823H101.401V12.4028H137.299Z" fill="#B2DBB9"/>
<path d="M145.94 64.1086H151.997V27.4713H145.94V64.1086ZM153.031 16.539C153.031 21.7836 145.054 21.7836 145.054 16.4653C145.054 11.2207 153.031 11.2207 153.031 16.539Z" fill="#B2DBB9"/>
<path d="M163.076 27.545H168.616L168.911 33.38C172.088 29.0221 176.519 27.0278 181.395 27.0278C190.628 27.0278 197.423 33.2327 197.423 43.9429V64.1083H191.366V44.0169C191.366 36.9999 187.23 32.6415 180.286 32.6415C173.639 32.7156 169.059 37.9597 169.059 44.5337V64.1083H163.076V27.6187V27.545Z" fill="#B2DBB9"/>
<path d="M237.087 43.2045C236.791 36.1134 231.916 32.2722 224.751 32.2722C218.398 32.2722 212.858 36.1134 211.825 43.1305H237.087V43.2045ZM240.632 58.273C236.939 62.631 230.586 64.7733 224.899 64.7733C213.597 64.7733 205.694 57.3127 205.694 45.7159C205.694 34.71 213.597 26.8066 224.603 26.8066C235.757 26.8066 244.251 33.676 242.848 48.2273H211.825C212.489 54.949 218.029 59.1593 225.046 59.1593C229.183 59.1593 234.206 57.5345 236.643 54.58L240.706 58.273H240.632Z" fill="#B2DBB9"/>
<path d="M44.0757 44.8156C28.1747 55.2429 24.213 70.8642 24.213 70.8642V46.5411V33.165V23.0137V19.8204V9.19357V8.09043H42.6314C42.6314 8.09043 59.1584 8.09043 60.9405 23.0542C62.2165 33.7667 51.8042 39.7474 44.0757 44.8156ZM60.6427 54.5978C60.6427 55.259 60.5913 55.9086 60.514 56.5496C60.4877 56.7673 60.4501 56.979 60.4161 57.193C60.3449 57.6305 60.2579 58.0611 60.153 58.4868C60.1037 58.6855 60.0575 58.885 60.0005 59.0804C58.1058 65.6726 52.1514 70.5757 44.9676 70.8339C44.9012 70.8424 44.8369 70.8565 44.7697 70.8642H44.3776H36.2942C36.9295 64.7164 38.9517 46.9345 52.6026 40.5956C56.1553 42.687 58.8411 46.081 60.0005 50.1157C60.0575 50.3111 60.1037 50.5102 60.153 50.7093C60.2579 51.1346 60.3449 51.5656 60.4161 52.0031C60.4501 52.2171 60.4877 52.4284 60.514 52.6465C60.5913 53.2875 60.6427 53.937 60.6427 54.5978ZM39.6461 0.1875C17.9469 0.1875 0.356445 17.778 0.356445 39.4771C0.356445 61.1763 17.9469 78.7667 39.6461 78.7667C61.3448 78.7667 78.9357 61.1763 78.9357 39.4771C78.9357 17.778 61.3448 0.1875 39.6461 0.1875Z" fill="#B2DBB9"/>
</svg>
