<svg width="37" height="36" viewBox="0 0 37 36" fill="none" xmlns="http://www.w3.org/2000/svg">
<path d="M18.3107 35.776C28.0862 35.776 36.0107 27.8514 36.0107 18.076C36.0107 8.30055 28.0862 0.375977 18.3107 0.375977C8.53529 0.375977 0.610718 8.30055 0.610718 18.076C0.610718 27.8514 8.53529 35.776 18.3107 35.776Z" fill="black"/>
<path fill-rule="evenodd" clip-rule="evenodd" d="M23.0108 14.976C24.4108 15.976 26.2107 16.576 28.1107 16.576V12.976C27.7107 12.976 27.4108 12.976 27.0108 12.876V15.776C25.1108 15.776 23.3108 15.176 21.9108 14.176V21.576C21.9108 25.276 18.9108 28.276 15.2108 28.276C13.8108 28.276 12.5108 27.876 11.4108 27.176C12.6108 28.476 14.3108 29.176 16.2108 29.176C19.9108 29.176 22.9108 26.176 22.9108 22.476L23.0108 14.976ZM24.3108 11.376C23.6108 10.576 23.1108 9.57598 23.0108 8.37598V7.87598H22.0108C22.2108 9.37598 23.1108 10.576 24.3108 11.376ZM13.7108 24.276C13.3108 23.776 13.1107 23.076 13.1107 22.376C13.1107 20.676 14.5108 19.276 16.2108 19.276C16.5108 19.276 16.8107 19.276 17.1107 19.376V15.676C16.7107 15.676 16.4108 15.576 16.0108 15.576V18.476C15.7108 18.376 15.4107 18.376 15.1107 18.376C13.4107 18.376 12.0108 19.776 12.0108 21.476C12.0108 22.776 12.7108 23.776 13.7108 24.276Z" fill="#EE1D52"/>
<path fill-rule="evenodd" clip-rule="evenodd" d="M21.9108 14.1765C23.3108 15.1765 25.1108 15.7766 27.0108 15.7766V12.8766C25.9108 12.6766 25.0108 12.0766 24.3108 11.3766C23.1108 10.5766 22.2108 9.37656 22.0108 7.97656H19.3108V22.5766C19.3108 24.2766 17.9108 25.6765 16.2108 25.6765C15.2108 25.6765 14.3108 25.1766 13.7108 24.4766C12.7108 23.9766 12.0108 22.8765 12.0108 21.6765C12.0108 19.9765 13.4107 18.5766 15.1107 18.5766C15.4107 18.5766 15.7108 18.6765 16.0108 18.6765V15.7766C12.3108 15.8766 9.41077 18.8766 9.41077 22.4766C9.41077 24.2766 10.1108 25.9765 11.3108 27.1765C12.4108 27.8765 13.7107 28.2766 15.1107 28.2766C18.8107 28.2766 21.8108 25.2766 21.8108 21.5766V14.1765H21.9108Z" fill="white"/>
<path fill-rule="evenodd" clip-rule="evenodd" d="M27.0107 12.8766V12.0766C26.0107 12.0766 25.1107 11.7766 24.3107 11.2766C25.0107 12.0766 25.9107 12.6766 27.0107 12.8766ZM21.9107 7.87656C21.9107 7.77656 21.9107 7.57656 21.8107 7.47656V6.97656H18.1107V21.5766C18.1107 23.2766 16.7107 24.6765 15.0107 24.6765C14.5107 24.6765 14.0107 24.5766 13.6107 24.3766C14.2107 25.0766 15.1107 25.5766 16.1107 25.5766C17.8107 25.5766 19.2107 24.1766 19.2107 22.4766V7.87656H21.9107ZM16.1107 15.6765V14.8766C15.8107 14.8766 15.5107 14.7766 15.2107 14.7766C11.5107 14.7766 8.51074 17.7766 8.51074 21.4766C8.51074 23.7766 9.71074 25.8766 11.5107 27.0766C10.3107 25.8766 9.61072 24.1766 9.61072 22.3766C9.51072 18.7766 12.4107 15.7765 16.1107 15.6765Z" fill="#69C9D0"/>
</svg>
