<svg width="36" height="36" viewBox="0 0 36 36" fill="none" xmlns="http://www.w3.org/2000/svg">
<path d="M17.8177 35.776C27.5931 35.776 35.5177 27.8514 35.5177 18.076C35.5177 8.30052 27.5931 0.375977 17.8177 0.375977C8.04225 0.375977 0.117676 8.30052 0.117676 18.076C0.117676 27.8514 8.04225 35.776 17.8177 35.776Z" fill="#FF0000"/>
<path d="M27.3177 15.4754C27.3177 13.1754 25.4177 11.2754 23.1177 11.2754H12.2177C9.91768 11.2754 8.0177 13.1754 8.0177 15.4754V20.5754C8.0177 22.8754 9.91768 24.7754 12.2177 24.7754H23.1177C25.4177 24.7754 27.3177 22.8754 27.3177 20.5754V15.4754ZM20.9177 18.3754L16.0177 20.7754C15.8177 20.8754 15.2177 20.7754 15.2177 20.4754V15.5754C15.2177 15.3754 15.9177 15.1754 16.0177 15.3754L20.7177 17.8754C20.9177 17.9754 21.1177 18.2754 20.9177 18.3754Z" fill="white"/>
</svg>
